<?xml version="1.0" standalone="no"?>
<!DOCTYPE svg PUBLIC "-//W3C//DTD SVG 20010904//EN"
 "http://www.w3.org/TR/2001/REC-SVG-20010904/DTD/svg10.dtd">
<svg version="1.0" xmlns="http://www.w3.org/2000/svg"
 width="515.000000pt" height="515.000000pt" viewBox="0 0 515.000000 515.000000"
 preserveAspectRatio="xMidYMid meet">
<metadata>
Created by potrace 1.11, written by Peter Selinger 2001-2013
</metadata>
<g transform="translate(0.000000,515.000000) scale(0.100000,-0.100000)"
fill="#000000" stroke="none">
<path d="M752 4807 c-172 -21 -327 -130 -402 -282 -64 -130 -61 -3 -58 -1981
3 -1672 4 -1802 20 -1842 46 -115 61 -137 140 -220 51 -52 175 -123 243 -138
17 -4 833 -8 1815 -9 1422 -2 1798 1 1847 11 176 36 330 178 389 358 l23 71 0
1782 c1 1262 -2 1797 -10 1835 -31 152 -141 293 -281 362 -41 21 -81 38 -89
40 -79 15 -157 18 -466 19 l-358 1 0 -418 0 -419 25 -10 c121 -49 194 -100
255 -182 187 -250 113 -595 -161 -750 -33 -19 -74 -37 -90 -41 l-29 -6 0 -406
c0 -224 4 -413 8 -419 5 -7 14 -13 20 -13 35 0 148 -69 203 -124 158 -158 196
-381 100 -581 -131 -274 -471 -373 -731 -213 -151 94 -249 280 -238 453 4 67
5 72 22 134 41 143 179 285 324 331 l37 12 0 414 c0 362 -2 414 -15 414 -8 0
-38 11 -66 25 l-51 24 -554 -553 c-305 -305 -554 -561 -554 -569 0 -9 4 -18 9
-21 4 -3 18 -37 30 -77 91 -286 -85 -588 -381 -655 -13 -3 -51 -7 -85 -8 -238
-12 -454 151 -517 390 -33 128 -3 296 75 410 128 188 376 266 593 188 39 -14
77 -26 83 -27 7 -1 262 247 567 551 l554 554 -19 32 c-30 51 -56 169 -53 242
5 134 71 275 169 362 47 41 174 112 201 112 12 0 14 72 14 420 0 231 -3 420
-7 421 -58 5 -2506 2 -2551 -4z"/>
</g>
</svg>
